<svg xmlns="http://www.w3.org/2000/svg" viewBox="0 0 220.01 75.92"><title>Asset 1</title><path d="M213.76,64.55a46.21,46.21,0,0,1-.22,4.76A9,9,0,0,1,209.39,75c-2.66,1.46-8.74,1.18-17.73-.82a154.08,154.08,0,0,1-18.48-5.53c-4.3-1.52-6-2.13-8.38-2.34-.5,0-160.47,0-160.47,0L4.22,68a1.75,1.75,0,0,1-3.5,0V61.05a1.75,1.75,0,0,1,3.5,0l.11,1.67c160,0,156.28.35,160.47,0,2.39-.21,4.08-.82,8.38-2.34a152,152,0,0,1,18.48-5.52c9-2,15.07-2.29,17.73-.83a9,9,0,0,1,4.15,5.69,46.21,46.21,0,0,1,.22,4.76Z" fill="#fff"/><polygon points="112.25 0 85.87 0 59.49 0 59.49 3.72 59.49 3.71 59.5 7.3 85.89 7.3 112.27 7.3 112.26 3.59 112.25 0" fill="#fff"/><path d="M111.82,9.66H94.52c-16.62,0-18.86-.18-20.43,0a19.43,19.43,0,0,0-13.18,7,20.27,20.27,0,0,0-3.87,9c-.36,2.17-.35,1.57-.35,14h0V51.14H74.63c11.71,0,18.24,0,18.82,0,10-.79,16.38-6.33,18-15.59.37-2.12.36-1.46.35-14.24ZM101.74,25.85c0,5.32,0,6.61-.12,7.32-.34,2.88-1,4.58-2.3,5.87s-3.52,2.05-7.21,2.22h0c-.82,0-6.85.08-13.39.09l-11.89,0V34.71c0-6.37,0-6.7.15-7.65a17.15,17.15,0,0,1,.33-1.75,6.66,6.66,0,0,1,5.81-5.46c2-.39,2.51-.42,16.27-.46h12.35Z" fill="#fff"/><path d="M53.6,33.48a8.85,8.85,0,0,0-5.41-3.58l-.51-.12.84-.21a9.47,9.47,0,0,0,2.38-.89,7.13,7.13,0,0,0,2-1.51c1.65-1.72,2.39-4,2.37-7.26a12.72,12.72,0,0,0-.57-4.21,8.6,8.6,0,0,0-6.87-5.9C46,9.41,0,9.49,0,9.49V30.27H0V51s45.1,0,45.59,0a10.94,10.94,0,0,0,7.12-2.9,9.3,9.3,0,0,0,2.53-5.7,25.78,25.78,0,0,0,0-4.12A10.81,10.81,0,0,0,53.6,33.48ZM42.4,41.33c-.26.06-3.45,0-16.27,0h-16V19.24h16c14.74,0,16-.1,16.37,0,1.52.47,2.14,1.54,2,3.36-.1,1.65-.72,2.71-2,3.17H17.2l0,8.91H29.68c11.11,0,12.48,0,12.77.09,1.38.43,2,1.35,2.13,3.05C44.7,39.67,44,40.91,42.4,41.33Z" fill="#fff"/><path d="M213.19,40.88s-34,.37-35.71,0c-3-.65-5-3.05-6.16-5.82,1.52-.12,35.39,0,35.39,0V25.5H170.49V19.17h42.67l0-4.93,0-4.78H160.32V20.23c0,10.9,0,12.08.25,13.82a20.61,20.61,0,0,0,3.19,8.75,15,15,0,0,0,2.17,2.59,20.09,20.09,0,0,0,12.95,5.46h0c.36,0,34.33,0,34.33,0Z" fill="#fff"/><polygon points="112.83 14.47 112.83 19.31 121.96 19.31 131.13 19.31 131.13 35.17 131.13 35.17 131.13 51.02 141.23 51.02 141.23 35.15 141.23 19.31 159.3 19.31 159.3 9.46 112.83 9.46 112.83 14.47" fill="#fff"/><path d="M217.63,62.48A2.35,2.35,0,1,0,220,64.82,2.36,2.36,0,0,0,217.63,62.48Zm0,4.2a1.87,1.87,0,1,1,1.78-1.85A1.79,1.79,0,0,1,217.63,66.68Z" fill="#fff"/><path d="M218.57,65.46c-.07-.32-.19-.5-.42-.57v0a.61.61,0,0,0,.49-.56.59.59,0,0,0-.24-.5,1.29,1.29,0,0,0-.8-.18,6.07,6.07,0,0,0-.9.07V66h.54V65.1h.26c.3,0,.44.11.48.36a1.91,1.91,0,0,0,.19.57h.57A1.93,1.93,0,0,1,218.57,65.46Zm-1.06-.74h-.25v-.67a1,1,0,0,1,.3,0c.34,0,.49.14.49.35S217.81,64.72,217.51,64.72Z" fill="#fff"/></svg>